<svg xmlns="http://www.w3.org/2000/svg" width="1600" height="900" viewBox="0 0 1600 900">
  <defs>
    <radialGradient id="g1" cx="18%" cy="8%" r="70%">
      <stop offset="0" stop-color="#7c3aed" stop-opacity="0.85"/>
      <stop offset="1" stop-color="#7c3aed" stop-opacity="0"/>
    </radialGradient>
    <radialGradient id="g2" cx="92%" cy="14%" r="70%">
      <stop offset="0" stop-color="#22d3ee" stop-opacity="0.70"/>
      <stop offset="1" stop-color="#22d3ee" stop-opacity="0"/>
    </radialGradient>
    <radialGradient id="g3" cx="55%" cy="112%" r="70%">
      <stop offset="0" stop-color="#34d399" stop-opacity="0.45"/>
      <stop offset="1" stop-color="#34d399" stop-opacity="0"/>
    </radialGradient>
    <linearGradient id="bg" x1="0" y1="0" x2="0" y2="1">
      <stop offset="0" stop-color="#0b1020"/>
      <stop offset="1" stop-color="#070a14"/>
    </linearGradient>
  </defs>
  <rect width="1600" height="900" fill="url(#bg)"/>
  <rect width="1600" height="900" fill="url(#g1)"/>
  <rect width="1600" height="900" fill="url(#g2)"/>
  <rect width="1600" height="900" fill="url(#g3)"/>
  <g opacity="0.25" fill="none" stroke="#ffffff">
    <path d="M0 680 C 260 610, 360 820, 640 740 C 920 660, 980 560, 1220 610 C 1460 660, 1510 780, 1600 760" stroke-width="2"/>
    <path d="M0 705 C 260 635, 360 845, 640 765 C 920 685, 980 585, 1220 635 C 1460 685, 1510 805, 1600 785" stroke-width="1.2"/>
  </g>
</svg>

